<svg width="600" height="115" viewBox="0 0 600 115" xmlns="http://www.w3.org/2000/svg"><title>Amazon.com-Logo</title><g fill="#444" fill-rule="evenodd"><path d="M234.203 89.387c-21.875 16.123-53.58 24.726-80.88 24.726-38.276 0-72.735-14.157-98.804-37.703-2.05-1.852-.22-4.375 2.24-2.933 28.13 16.37 62.92 26.216 98.85 26.216 24.23 0 50.89-5.014 75.4-15.418 3.7-1.573 6.8 2.425 3.18 5.112"/><path d="M243.297 78.982c-2.786-3.572-18.483-1.688-25.53-.852-2.146.262-2.473-1.606-.54-2.95 12.502-8.798 33.017-6.26 35.41-3.31 2.392 2.967-.623 23.53-12.372 33.345-1.802 1.508-3.523.705-2.72-1.294 2.638-6.58 8.553-21.35 5.752-24.93M218.26 13.07V4.51c0-1.295.983-2.163 2.162-2.163h38.293c1.23 0 2.212.885 2.212 2.163v7.324c-.016 1.23-1.048 2.835-2.883 5.375L238.2 45.54c7.374-.18 15.157.917 21.843 4.686 1.507.852 1.917 2.097 2.03 3.326v9.127c0 1.24-1.375 2.7-2.817 1.94-11.78-6.18-27.43-6.85-40.456.06-1.327.72-2.72-.72-2.72-1.97v-8.66c0-1.4.017-3.77 1.41-5.89l22.988-32.96h-20.006c-1.23 0-2.213-.87-2.213-2.15M78.57 66.43H66.92c-1.114-.08-2-.917-2.08-1.982V4.658c0-1.197.998-2.147 2.244-2.147H77.95c1.13.05 2.032.92 2.114 2v7.82h.213c2.835-7.55 8.16-11.08 15.337-11.08 7.29 0 11.847 3.53 15.124 11.08 2.818-7.55 9.225-11.07 16.09-11.07 4.883 0 10.225 2.02 13.486 6.54 3.686 5.03 2.933 12.34 2.933 18.75l-.017 37.74c0 1.2-1 2.16-2.245 2.16h-11.633c-1.164-.08-2.098-1.01-2.098-2.16v-31.7c0-2.52.23-8.81-.327-11.2-.87-4.01-3.474-5.14-6.85-5.14-2.818 0-5.767 1.882-6.963 4.9-1.197 3.012-1.082 8.06-1.082 11.45v31.69c0 1.195-1 2.162-2.245 2.162H98.154c-1.18-.08-2.098-1.015-2.098-2.162L96.04 32.6c0-6.67 1.098-16.482-7.177-16.482-8.373 0-8.045 9.57-8.045 16.49v31.69c0 1.2-1 2.17-2.245 2.17m215.322-65.2c17.287 0 26.643 14.846 26.643 33.72 0 18.24-10.34 32.708-26.643 32.708-16.975 0-26.217-14.843-26.217-33.342 0-18.61 9.356-33.08 26.217-33.08m.098 12.2c-8.586 0-9.126 11.7-9.126 18.99 0 7.31-.115 22.91 9.028 22.91 9.028 0 9.455-12.59 9.455-20.25 0-5.05-.214-11.08-1.737-15.86-1.31-4.16-3.917-5.79-7.62-5.79m48.96 52.97h-11.6c-1.164-.08-2.098-1.02-2.098-2.17l-.015-59.8c.097-1.097 1.064-1.95 2.243-1.95h10.8c1.014.05 1.85.738 2.08 1.67v9.145h.212c3.26-8.176 7.833-12.076 15.878-12.076 5.227 0 10.323 1.88 13.6 7.04 3.047 4.78 3.047 12.83 3.047 18.61v37.64c-.13 1.05-1.09 1.884-2.24 1.884h-11.68c-1.064-.08-1.95-.87-2.064-1.885V32.07c0-6.537.754-16.107-7.29-16.107-2.836 0-5.44 1.9-6.736 4.785-1.64 3.654-1.85 7.292-1.85 11.322v32.198c-.018 1.196-1.034 2.163-2.28 2.163m41.44-4.75c0-3.01 2.57-5.44 5.733-5.44 3.164 0 5.736 2.43 5.736 5.44 0 3-2.58 5.46-5.74 5.46s-5.74-2.45-5.74-5.45m123.43 4.77c-1.21-.05-2.16-.98-2.16-2.16V4.5c.06-1.067.96-1.9 2.08-1.968h4.27c1.18 0 2.13.85 2.22 1.967v8.71C517.3 6.3 522.97.89 530.13.89h.87c7.6 0 13.154 5.606 15.22 13.75C549.445 6.59 555.505.89 563.502.89h.884c5.653 0 11.093 3.636 13.912 9.175 2.72 5.292 2.62 12.338 2.62 18.253l-.02 35.966c.016 1.147-.918 2.08-2.08 2.163h-5.113c-1.115-.05-2.016-.835-2.163-1.868V28.31c0-4.277.213-8.815-1.524-12.715-1.77-3.98-5.16-6.47-8.8-6.653-4.062.196-7.8 3.162-10.223 7.16-3.147 5.16-3.03 9.815-3.03 15.845v32.66c-.15.983-1.018 1.753-2.083 1.835h-5.08c-1.212-.05-2.18-.983-2.18-2.163l-.03-38.36c0-3.53-.214-7.67-1.837-10.83-1.88-3.61-5.256-5.97-8.796-6.15-3.67.21-7.37 3.01-9.57 6.27-2.84 4.16-3.38 9.31-3.38 14.6v34.46c0 1.15-.94 2.08-2.1 2.16h-5.1m-35.1 1.24c-16.53 0-23.94-16.86-23.94-33.72 0-17.73 8.7-33.08 25.35-33.08h.88c16.18 0 24.25 16.35 24.25 33.21 0 17.86-8.93 33.59-25.68 33.59h-.87m1.21-8.18c5.44-.18 9.73-3.56 12.27-9.18 2.28-5.05 2.72-10.83 2.72-16.37 0-6.03-.657-12.32-3.49-17.48-2.54-4.51-6.9-7.38-11.52-7.54-5.146.18-9.75 3.67-12.06 9.04-2.08 4.654-2.72 10.83-2.72 15.976 0 5.79.753 12.47 3.145 17.5 2.33 4.77 6.8 7.87 11.65 8.05m-52.87-.26c7.42-.23 11.32-6.18 12.927-13.88.33-.967 1.07-1.705 2.15-1.705l4.9-.01c1.16.05 2.23.936 2.13 2.017-2.26 13.127-10.175 22.025-21.45 22.025h-.883c-16.42 0-23.495-16.487-23.495-33.217 0-16.6 7.176-33.59 23.594-33.59h.887c11.404 0 19.53 8.78 21.3 21.905 0 .987-.92 1.84-2 1.95l-5.13-.062c-1.08-.148-1.784-1.066-1.95-2.098-1.226-7.32-5.44-13.16-12.45-13.39-11.158.36-14.337 14.092-14.337 24.66 0 10.176 2.655 25.04 13.81 25.4M187.73 37.86c0 4.54.117 8.324-2.18 12.355-1.85 3.276-4.8 5.29-8.06 5.29-4.472 0-7.094-3.407-7.094-8.44 0-9.927 8.896-11.73 17.334-11.73v2.524m11.75 28.4c-.77.69-1.885.74-2.753.28-3.87-3.21-4.575-4.7-6.69-7.77-6.39 6.52-10.93 8.47-19.202 8.47-9.816 0-17.435-6.04-17.435-18.15 0-9.45 5.114-15.89 12.42-19.04 6.327-2.78 15.16-3.27 21.91-4.04V24.5c0-2.77.21-6.046-1.43-8.438-1.41-2.147-4.13-3.032-6.535-3.032-4.44 0-8.39 2.278-9.357 6.997-.2 1.05-.97 2.08-2.036 2.13l-11.29-1.212c-.95-.213-2.014-.984-1.736-2.442C157.944 4.805 170.33.676 181.41.676c5.67 0 13.076 1.507 17.55 5.8 5.67 5.293 5.128 12.355 5.128 20.04V44.67c0 5.457 2.26 7.85 4.39 10.8.74 1.048.903 2.31-.048 3.096-2.376 1.982-6.603 5.67-8.93 7.734l-.016-.033M35.004 37.87c0 4.54.114 8.325-2.18 12.356-1.85 3.277-4.784 5.292-8.06 5.292-4.474 0-7.08-3.408-7.08-8.44 0-9.928 8.898-11.73 17.32-11.73v2.523m11.748 28.4c-.77.69-1.884.74-2.753.28-3.87-3.21-4.56-4.7-6.69-7.76-6.39 6.52-10.92 8.47-19.21 8.47C8.31 67.25.67 61.21.67 49.1c0-9.458 5.13-15.897 12.42-19.04 6.328-2.788 15.158-3.278 21.91-4.048V24.5c0-2.77.214-6.046-1.41-8.438-1.424-2.147-4.144-3.032-6.536-3.032-4.44 0-8.406 2.278-9.373 6.997-.19 1.05-.96 2.08-2.01 2.13L4.36 20.945c-.95-.213-2-.984-1.737-2.442C5.23 4.805 17.603.676 28.68.676c5.668 0 13.075 1.507 17.548 5.8 5.67 5.293 5.128 12.355 5.128 20.04V44.67c0 5.457 2.262 7.85 4.392 10.8.754 1.048.917 2.31-.033 3.096-2.376 1.982-6.603 5.67-8.93 7.734l-.033-.033m546.26-63.1c2.803 0 5.13 2.26 5.13 5.112 0 2.78-2.294 5.12-5.13 5.12-2.817 0-5.11-2.3-5.11-5.13 0-2.89 2.326-5.12 5.112-5.12m.016-.99c-3.278 0-6.113 2.65-6.113 6.11 0 3.39 2.786 6.09 6.112 6.09 3.34 0 6.09-2.74 6.09-6.1 0-3.46-2.8-6.115-6.1-6.115m-2.3 9.54h1.31V8.97h1.21c.47 0 .6.194.7.59 0 .096.23 1.833.24 2.16h1.45c-.18-.327-.28-1.26-.346-1.82-.13-.867-.197-1.473-1.13-1.54.474-.162 1.293-.425 1.293-1.686 0-1.803-1.59-1.803-2.41-1.803h-2.34v6.85m1.3-5.75h1.093c.36 0 1.017 0 1.017.94 0 .36-.165.97-1.05.97H592V5.97"/></g></svg>