<svg xmlns="http://www.w3.org/2000/svg" viewBox="-150 0 600 196"><path fill="#444" d="M-139.3 120h31.4c14.3 0 29 3.1 29 18.6 0 5.9-3.2 11.7-9.7 13.6v.6c8 2.6 13.1 7.9 13.1 16 0 13.9-14.1 18.6-27.1 18.6h-36.7V120m27.5 25.9c4 0 8.4-.4 8.4-5 0-5-5.1-4.7-9-4.7h-1.9v9.7h2.5zm-2.4 25.4h3c4.4 0 10.8-.1 10.8-5.6 0-5.6-6.9-5.5-11.2-5.5h-2.6v11.1zm43-51.3v67.3H-16V169h-25.6v-6.6H-19v-17.5h-22.6v-6.4h24.8V120h-54.4m92.6 0H-16l31.7 38.3v29H48v-29L79.1 120H42l-6.5 11.2c-1.2 2.1-2 4.2-3 6.3h-1L21.4 120m151.2 33.9c0 21.6-24.3 34.6-54 34.6-29.8 0-54-12.9-54-34.6 0-21.2 24.4-34.9 54-34.9 29.7-.1 54 13.7 54 34.9m-72.2.3c0 7.7 7.5 12.9 18.2 12.9 10.8 0 18.3-5.3 18.3-12.9 0-7.1-7-13.1-18.3-13.1s-18.2 6-18.2 13.1zM287.8 120h56.1c50.9 0 89.8 9.9 89.8 34.7 0 20-31.7 32.7-76.2 32.7h-69.7V120m55 47.1h3.4c18.3 0 32.3-3.7 32.3-12.6 0-9.5-12.3-13.5-32.3-13.5h-3.4v26.1zm78.9-46.4c0-5 3.9-9 9-9s9 4 9 9-4 9-9 9-9-4-9-9m16.7 0c0-4.2-3.5-7.6-7.6-7.6s-7.6 3.4-7.6 7.6c0 4.2 3.5 7.6 7.6 7.6s7.6-3.3 7.6-7.6zm-3.4 4.9h-1.6l-3-4.5h-1.6v4.5h-1.4v-9.8h4.3c1.7 0 3.5.5 3.5 2.6 0 1.9-1.3 2.6-3.1 2.7l2.9 4.5zm-4.6-5.9c1.2 0 3.4.2 3.4-1.3 0-1-1.3-1.2-2.4-1.2h-2.6v2.5h1.6zm-217 .3H177v67.3h36.3V153l32.2 34.3h36.2V120h-36.2v34.9L213.4 120M-139.4 11.6h10.9c16.7 0 32.6 4.4 32.6 24.5 0 6.5-3.5 14.1-9.6 16.9v.2c10.5 1.9 17.9 12.2 17.9 22.6 0 17.9-15.2 25-31 25h-20.8V11.6m11.1 39.5h2.8c10.6 0 19.2-2.2 19.2-14.9 0-12.5-8.5-14.7-18.9-14.7h-3.1v29.6zm0 39.7h8.5c10.3 0 21-3.1 21-15.7 0-12.5-12.8-15.1-22.7-15.1h-6.9c.1 0 .1 30.8.1 30.8zm47.2-79.2v89.2h47.9V90.6H-70V56.9h35.8V46.7H-70v-25h36.8V11.6h-47.9m58.3 0h18.4C23 11.6 45.7 26 45.7 55.7c0 30.4-22.3 45.1-50.4 45.1h-18.1V11.6m11.1 79h3.9c22.7 0 42.4-8.5 42.4-34.4 0-26-19.7-34.4-42.4-34.4h-3.9v68.8zm88.7-79h10.9c16.8 0 32.7 4.4 32.7 24.5 0 6.5-3.5 14.1-9.6 16.9v.2c10.5 1.9 17.8 12.2 17.8 22.6 0 17.9-15.2 25-31 25H77V11.6m11.1 39.5h2.8c10.5 0 19.2-2.2 19.2-14.9 0-12.5-8.5-14.7-19-14.7H88l.1 29.6zm0 39.7h8.5c10.3 0 21.1-3.1 21.1-15.7C117.7 62.6 104.9 60 95 60h-6.9v30.8zm62.2-12.4l-10.2 22.4h-11.9l42.6-93 42.6 93h-11.9l-10.2-22.4h-41m20.5-46.2l-15.9 36.1h31.7l-15.8-36.1zm62.2 68.6v-79h21.2V11.6h-53.4v10.2H222v79h11m80.7-53.2h-42.4v-36h-11.1v89.2h11.1V58h42.4v42.8h11.1V11.6h-11.1v36m94.2 41.1c-6.7 7.9-16.2 13.9-26.7 13.9-14.9 0-27.3-10.9-27.3-26.3 0-11.3 7.1-17.5 15.6-23.6l5.6-4c-5.1-5.3-9.8-12-9.8-19.5 0-12.3 8.9-19.5 20.6-19.5 10.9 0 20.6 6.9 20.6 18.6 0 10-8.7 16.8-16.2 22.2L408.8 73l10.4-12 7.1 7.3L415.4 81l15.9 19.7h-13.7l-9.7-12m-27.3-31.2c-6.2 4.3-16.2 10.3-16.2 18.8s8 16.5 16.6 16.5c8.3 0 14.9-6.3 20.5-11.9l-19.8-24.1-1.1.7zm4.8-15.6c4.5-3.5 10.6-7.2 10.6-13.7 0-6.3-4.5-9.7-10.4-9.7-5.3 0-10 3.8-10 9.5 0 4.5 2.7 7.8 5.4 11.1l3 3.8 1.4-1z"/></svg>